# xmcd CD database file
#
# Track frame offsets:
#	150
#	29701
#	61462
#	83564
#	113302
#	133806
#	168143
#	190851
#	214055
#	234431
#
# Disc length: 3640 seconds
#
# Revision: 0
# Processed by: cddbd v1.4PL0 Copyright (c) Steve Scherf et al.
# Submitted via: CDex 1.50
#
DISCID=7e0e360a
DTITLE=Various Artist - Africa Awakens (Music for Relaxation)
DYEAR=1900
DGENRE=New Age
TTITLE0=Kilimanjaro
TTITLE1=Kube-Tu (Cross The River)
TTITLE2=Kora
TTITLE3=Ithabise (Celebrate)
TTITLE4=Taraab
TTITLE5=Serengeti Sunrise
TTITLE6=Indela (On The Path)
TTITLE7=Kalimba Limba
TTITLE8=Mbria
TTITLE9=Vusa Amakhosi (Wake The Ancestors)
EXTD=
EXTT0=
EXTT1=
EXTT2=
EXTT3=
EXTT4=
EXTT5=
EXTT6=
EXTT7=
EXTT8=
EXTT9=
PLAYORDER=
